<svg width="19" height="20" viewBox="0 0 19 20" fill="none" xmlns="http://www.w3.org/2000/svg">
  <g id="Icons">
    <path id="Vector" d="M6 6H4V8H6V6Z" fill="#737373"/>
    <path id="Vector_2" d="M6 10H4V12H6V10Z" fill="#737373"/>
    <path id="Vector_3" d="M6 14H4V16H6V14Z" fill="#737373"/>
    <path id="Vector_4" d="M16 17.9999H2V3.99991H16V4.99991H18V3.99991C18 3.46948 17.7893 2.96077 17.4142 2.5857C17.0391 2.21063 16.5304 1.99991 16 1.99991H11.82C11.6098 1.42076 11.2264 0.920374 10.7218 0.566756C10.2173 0.213137 9.61612 0.0234375 9 0.0234375C8.38388 0.0234375 7.7827 0.213137 7.27816 0.566756C6.77363 0.920374 6.3902 1.42076 6.18 1.99991H2C1.46957 1.99991 0.960859 2.21063 0.585786 2.5857C0.210714 2.96077 0 3.46948 0 3.99991V17.9999C0 18.5303 0.210714 19.0391 0.585786 19.4141C0.960859 19.7892 1.46957 19.9999 2 19.9999H16C16.5304 19.9999 17.0391 19.7892 17.4142 19.4141C17.7893 19.0391 18 18.5303 18 17.9999V16.9999H16V17.9999Z" fill="#737373"/>
    <path id="Vector_5" d="M14 6C13.0111 6 12.0444 6.29324 11.2222 6.84265C10.3999 7.39206 9.75904 8.17295 9.3806 9.08658C9.00217 10.0002 8.90315 11.0055 9.09608 11.9755C9.289 12.9454 9.76521 13.8363 10.4645 14.5355C11.1637 15.2348 12.0546 15.711 13.0246 15.9039C13.9945 16.0969 14.9998 15.9978 15.9134 15.6194C16.8271 15.241 17.6079 14.6001 18.1574 13.7779C18.7068 12.9556 19 11.9889 19 11C19 9.67392 18.4732 8.40215 17.5355 7.46447C16.5979 6.52678 15.3261 6 14 6ZM14.5 14H13.5V13H14.5V14ZM16 10.05C16.0028 10.288 15.9387 10.5221 15.8149 10.7254C15.6912 10.9287 15.5127 11.0932 15.3 11.2L14.7 11.5C14.6419 11.5262 14.5923 11.5683 14.557 11.6213C14.5216 11.6744 14.5019 11.7363 14.5 11.8V12.25H13.5V11.65C13.5028 11.4772 13.5503 11.3081 13.6379 11.1591C13.7256 11.0101 13.8503 10.8864 14 10.8L14.7 10.45C14.7834 10.4057 14.8544 10.3414 14.9068 10.2628C14.9591 10.1843 14.9912 10.094 15 10V9.7C15 9.58065 14.9526 9.46619 14.8682 9.3818C14.7838 9.29741 14.6693 9.25 14.55 9.25H13.5C13.3807 9.25 13.2662 9.29741 13.1818 9.3818C13.0974 9.46619 13.05 9.58065 13.05 9.7V10.25H12.05V9.7C12.05 9.31544 12.2028 8.94662 12.4747 8.6747C12.7466 8.40277 13.1154 8.25 13.5 8.25H14.55C14.9346 8.25 15.3034 8.40277 15.5753 8.6747C15.8472 8.94662 16 9.31544 16 9.7V10.05Z" fill="#737373"/>
  </g>
</svg>
