<svg width="37" height="36" viewBox="0 0 37 36" fill="none" xmlns="http://www.w3.org/2000/svg">
  <circle cx="18.5" cy="18" r="18" fill="#FFC414"/>
  <path d="M15.2461 17.2391C16.4016 17.4424 17.5728 17.5428 18.7461 17.5391C19.721 17.5488 20.6938 17.4482 21.6461 17.2391C22.99 16.9467 24.3052 16.5351 25.5761 16.0091C25.8124 15.9644 26.0267 15.8414 26.1846 15.66C26.3424 15.4786 26.4345 15.2493 26.4461 15.0091V10.5391C26.4461 7.63906 19.2461 7.53906 18.4461 7.53906C17.6461 7.53906 10.4461 7.53906 10.4461 10.4391V18.4991C10.4008 18.6525 10.4008 18.8157 10.4461 18.9691V22.7391C10.4521 22.9856 10.521 23.2265 10.6461 23.4391C11.555 24.3178 12.7029 24.9091 13.9461 25.1391C14.3082 25.2287 14.6756 25.2955 15.0461 25.3391H15.3461C15.5912 25.3279 15.8248 25.2322 16.0072 25.068C16.1895 24.9039 16.3093 24.6816 16.3461 24.4391C16.3676 24.3197 16.3633 24.1971 16.3335 24.0795C16.3037 23.9619 16.2491 23.852 16.1733 23.7573C16.0975 23.6626 16.0023 23.5851 15.8941 23.5303C15.786 23.4754 15.6673 23.4443 15.5461 23.4391H15.3461C15.0195 23.3423 14.6848 23.2753 14.3461 23.2391C13.6617 23.0615 13.017 22.7561 12.4461 22.3391V20.3391C13.3504 20.7202 14.2876 21.0181 15.2461 21.2291H15.4461C15.6543 21.2362 15.8584 21.17 16.0229 21.0421C16.1873 20.9142 16.3017 20.7326 16.3461 20.5291C16.3751 20.3975 16.3773 20.2615 16.3525 20.1291C16.3277 19.9967 16.2764 19.8707 16.2017 19.7587C16.1269 19.6466 16.0304 19.5508 15.9177 19.477C15.8051 19.4031 15.6786 19.3528 15.5461 19.3291C14.4734 19.0844 13.433 18.7153 12.4461 18.2291V16.3391C13.3533 16.7149 14.2898 17.0159 15.2461 17.2391ZM21.1461 15.3391C19.3194 15.6031 17.462 15.5693 15.6461 15.2391C14.5412 14.9855 13.4679 14.6099 12.4461 14.1191V12.5891C14.3889 13.1862 16.4138 13.4731 18.4461 13.4391C20.4788 13.4689 22.5036 13.1787 24.4461 12.5791V14.3491C23.372 14.7601 22.269 15.091 21.1461 15.3391ZM18.4461 9.43906C20.4297 9.33643 22.4113 9.67808 24.2461 10.4391C23.6461 10.8391 21.6461 11.4391 18.4461 11.4391C16.4295 11.5496 14.4136 11.2079 12.5461 10.4391C14.4172 9.68256 16.4302 9.34136 18.4461 9.43906Z" fill="#333333"/>
  <path d="M22.8379 26.9609H24.3379V28.4609H22.8379V26.9609ZM23.5879 20.9609C23.9857 20.9609 24.3672 21.119 24.6486 21.4003C24.9299 21.6816 25.0879 22.0631 25.0879 22.4609C25.0879 23.9609 22.8379 23.7734 22.8379 26.2109H24.3379C24.3379 24.5234 26.5879 24.3359 26.5879 22.4609C26.5879 21.6653 26.2718 20.9022 25.7092 20.3396C25.1466 19.777 24.3835 19.4609 23.5879 19.4609C22.7922 19.4609 22.0292 19.777 21.4666 20.3396C20.904 20.9022 20.5879 21.6653 20.5879 22.4609H22.0879C22.0879 22.0631 22.2459 21.6816 22.5272 21.4003C22.8085 21.119 23.1901 20.9609 23.5879 20.9609Z" fill="#333333"/>
</svg>
